<?xml version="1.0" encoding="utf-8"?>
<!-- Generator: Adobe Illustrator 24.0.1, SVG Export Plug-In . SVG Version: 6.00 Build 0)  -->
<svg version="1.1" id="Layer_1" xmlns="http://www.w3.org/2000/svg" xmlns:xlink="http://www.w3.org/1999/xlink" x="0px" y="0px"
	 viewBox="0 0 1034.6 160.7" style="enable-background:new 0 0 1034.6 160.7;" xml:space="preserve">
<style type="text/css">
	.st0{fill:#D68080;}
	.st1{fill:#FFFFFF;}
	.st2{fill:#C9C9C9;}
	.st3{fill:none;stroke:#000000;stroke-width:3;stroke-miterlimit:10;}
	.st4{enable-background:new    ;}
	.st5{clip-path:url(#SVGID_2_);}
	.st6{fill:#FF7B7B;}
	.st7{clip-path:url(#SVGID_4_);}
	.st8{clip-path:url(#SVGID_6_);}
	.st9{clip-path:url(#SVGID_8_);}
	.st10{clip-path:url(#SVGID_10_);}
</style>
<g>
	<path class="st3" d="M183.4,2.7c0.6,0,1.7,0.5,3.3,1.4c1.6,0.9,3.3,2.3,4.9,4.1c1.6,1.8,3.1,4.1,4.4,6.7c1.3,2.7,2,5.7,2,9.2
		c0,2.2-0.9,5.2-2.6,8.9c-1.7,3.7-4,7.8-6.9,12.4c-2.9,4.5-6.3,9.3-10.1,14.5c-3.9,5.1-8,10.2-12.3,15.1c-4.3,5-8.7,9.8-13.2,14.3
		c-4.5,4.6-8.8,8.6-13,12s-8.1,6.2-11.7,8.3c-3.6,2.1-6.7,3.1-9.2,3.1c-2.7,0-5.2-0.6-7.4-1.7c-2.2-1.1-4.1-2.5-5.7-4.1
		c-1.6-1.6-2.8-3.4-3.7-5.3s-1.3-3.5-1.3-5c0-1,0.4-2.8,1.1-5.5c0.7-2.7,1.8-5.9,3.2-9.7c-2.7,3.7-5.6,7.4-8.6,11.1
		c-3,3.7-6,7.1-9,10.1c-3,3-5.9,5.4-8.6,7.3c-2.8,1.9-5.3,2.8-7.5,2.8c-2.7,0-5.2-0.6-7.4-1.7c-2.2-1.1-4.1-2.5-5.7-4.1
		c-1.6-1.6-2.8-3.4-3.7-5.3c-0.9-1.9-1.3-3.5-1.3-5c0-1.2,0.5-3.5,1.5-6.9c1-3.5,2.4-7.6,4.1-12.4c1.7-4.8,3.7-10.1,5.9-15.8
		c2.2-5.7,4.5-11.4,6.8-17c2.3-5.7,4.6-11.1,6.9-16.3c2.3-5.2,4.3-9.7,6.2-13.6h-3c-2.1,0-4.8,0.3-8.3,1c-3.5,0.7-7.2,1.7-11.2,3.1
		c-4,1.4-8.2,3.2-12.6,5.4c-4.4,2.2-8.5,4.9-12.5,8.2c-4,3.2-7.6,6.9-10.9,11.1c-3.3,4.2-5.9,9-7.8,14.3c-1.4,4-2.1,7.2-2.2,9.6
		s0.1,4.4,0.6,5.7c0.5,1.4,1.2,2.3,2,2.7c0.8,0.5,1.5,0.7,2,0.7c0.9-0.4,1.9-0.6,2.8-0.7c1,0,1.9,0.1,2.7,0.4
		c0.8,0.3,1.4,0.7,1.9,1.4c0.5,0.6,0.7,1.3,0.7,2.2c0,0.9-0.8,1.7-2.4,2.4c-1.6,0.7-3.7,1-6.4,1c-1.5,0-3.3-0.6-5.3-1.8
		c-2.1-1.2-4.1-2.9-6-5.2c-1.9-2.3-3.6-5-4.9-8.2c-1.3-3.2-2-6.7-2-10.7c0-3.5,0.9-7.2,2.7-11.2c1.8-4,4.4-8,7.8-12
		c3.4-4,7.6-7.8,12.6-11.5c5-3.7,10.6-7,16.9-9.8c6.3-2.8,13.2-5,20.8-6.7c7.6-1.7,15.7-2.5,24.5-2.5h3.8h0.2h0.1
		c0.8,0,1.9,0.3,3.2,0.9C96,5,97.3,5.7,98.5,6.6c1.2,0.9,2.3,1.9,3.2,3s1.3,2.2,1.3,3.3c-0.9,1.8-2.2,4.5-3.8,8.1
		c-1.6,3.6-3.4,7.7-5.3,12.2c-1.9,4.6-4,9.5-6.1,14.8c-2.1,5.3-4.2,10.5-6.2,15.7c-2,5.2-3.9,10.2-5.6,15c-1.7,4.8-3,9.1-4.1,12.7
		c-1,3.7-1.7,6.6-2,8.8c-0.3,2.2,0,3.3,0.9,3.3c1.2,0,3.1-1,5.6-3c2.5-2,5.3-4.6,8.5-8c3.1-3.3,6.4-7.2,9.9-11.5
		c3.5-4.3,6.9-8.8,10.2-13.5c3.3-4.7,6.3-9.3,9.1-13.9c2.8-4.6,5-8.9,6.7-13c2.1-4.3,4.2-8.6,6.1-13c1.9-4.4,3.7-8.4,5.3-11.9
		c1.6-3.5,2.9-6.4,4.1-8.7c1.2-2.3,2.1-3.4,2.8-3.4c0.8,0,1.9,0.3,3.2,0.9c1.3,0.6,2.5,1.3,3.8,2.2c1.2,0.9,2.3,1.9,3.2,3
		c0.9,1.1,1.3,2.2,1.3,3.3c-0.9,1.8-2.2,4.5-3.8,8.1c-1.6,3.6-3.4,7.7-5.3,12.2c-1.9,4.6-4,9.5-6.1,14.8c-2.1,5.3-4.2,10.5-6.2,15.7
		c-2,5.2-3.9,10.2-5.6,15c-1.7,4.8-3,9.1-4.1,12.7c-1,3.7-1.7,6.6-2,8.8c-0.3,2.2,0,3.3,0.9,3.3c1,0,2.7-1.1,5.3-3.4
		c2.5-2.3,5.5-5.3,8.8-9.1s7.1-8.3,11.1-13.3c4-5.1,8-10.4,12-16c4-5.6,7.8-11.3,11.4-17c3.6-5.8,6.7-11.3,9.3-16.6
		c2.6-5.3,4.6-10.1,6-14.5C183.6,9.1,183.9,5.5,183.4,2.7z"/>
	<path class="st3" d="M382.3,63.3c-0.4-0.8-0.9-1.2-1.4-1.2c-2.9,4.1-6.1,8.6-9.6,13.4c-3.5,4.8-7,9.3-10.5,13.4
		c-3.5,4.1-6.6,7.5-9.5,10.3c-2.9,2.7-5.1,4.1-6.6,4.1c-1.4,0-2.5-0.9-3.5-2.7c-0.9-1.8-1.6-4-2.2-6.6c-0.5-2.6-1-5.3-1.3-8.2
		c-0.3-2.8-0.5-5.3-0.6-7.4c3.3-3.2,6.6-6.2,9.8-9c3.2-2.8,6.3-5.2,9.1-7.1c2.9-1.9,5.5-3.3,7.9-4.2c2.4-0.9,4.4-0.9,6.1-0.2
		c0-1.1-0.2-2.5-0.6-4.3c-0.4-1.8-1-3.5-1.9-5.1c-0.9-1.6-2.1-3.1-3.6-4.3c-1.5-1.2-3.3-1.9-5.6-1.9c-1.3,0-3,0.7-4.9,2.1
		c-2,1.4-4.2,3.3-6.6,5.6c-2.4,2.3-5,5.1-7.8,8.1c-2.8,3.1-5.5,6.4-8.3,9.8c-2.8,3.4-5.6,6.9-8.3,10.4c-2.8,3.5-5.3,6.8-7.7,10
		c2.1-4.7,4.3-9.7,6.8-15c2.5-5.3,4.9-10.6,7.4-15.8c2.5-5.2,4.8-10.3,7.1-15.1c2.3-4.8,4.3-9.1,6.1-12.8c1.8-3.7,3.2-6.8,4.3-9.1
		c1.1-2.3,1.6-3.6,1.6-3.9c0-1.1-0.4-2.2-1.1-3.3c-0.7-1.1-1.6-2.1-2.7-3c-1.1-0.9-2.2-1.6-3.3-2.1c-1.2-0.5-2.1-0.8-3-0.8
		c-0.5,0-1.5,1.2-3,3.5c-1.5,2.3-3.4,5.4-5.5,9.3c-2.1,3.8-4.5,8.3-7,13.3c-2.6,5-5.1,10.2-7.7,15.5c-2.6,5.3-5,10.6-7.4,15.9
		c-1.2,2.8-2.4,5.4-3.5,7.9c-0.7,0.9-1.3,1.8-2,2.8c-3.6,4.8-7.1,9.2-10.5,13.3c-3.4,4.1-6.6,7.5-9.5,10.3c-2.9,2.7-5.1,4.1-6.6,4.1
		c-0.7,0-0.8-1.1-0.1-3.2c0.7-2.1,1.7-4.8,3-8c1.4-3.2,2.9-6.7,4.7-10.5c1.8-3.8,3.4-7.4,5-10.7c1.6-3.4,2.9-6.2,4-8.6
		c1.1-2.3,1.7-3.7,1.7-4c0-1.4-0.6-2.8-1.9-4.3c-1.2-1.5-2.6-2.6-4.2-3.5c-0.5-0.3-0.9-0.5-1.1-0.6c-2.6-1.3-5.2-2.2-7.6-2.7
		c-2.4-0.5-4.6-0.8-6.4-0.9c0.6-1,1.2-2.1,1.8-3.3c0.6-1.2,1.2-2.5,1.7-3.8c0.5-1.3,0.9-2.5,1.2-3.5c0.3-1.1,0.5-1.9,0.5-2.6
		c0-0.8-0.5-1.8-1.4-2.8c-0.9-1-2.1-2-3.3-2.9c-1.3-0.9-2.6-1.6-4-2.2c-1.4-0.6-2.4-0.9-3.3-0.9c-1.2,0-2.3,0.9-3.4,2.8
		c-1.1,1.9-2.1,4-3,6.5c-0.9,2.5-1.6,4.9-2.2,7.4c-0.6,2.5-0.9,4.4-0.9,5.7s0.4,2.6,1.1,3.8s1.7,2.2,3,3c-1,2.2-2.1,4.6-3.4,7.1
		c-1.3,2.5-2.5,4.8-3.6,6.9c-1.1,2.2-2.2,4-3.1,5.5c-0.4,0.6-0.6,1.1-0.9,1.5c0,0,0,0,0,0c-1.3,1.4-2.5,2.7-3.8,3.9
		c-4.4,4.2-8.8,6.9-13.3,8.1c1.9-3.2,3.4-6.2,4.5-8.9c1.1-2.8,1.7-4.9,1.7-6.4c0-6.7-1.5-12-4.4-16c-3-4-7.5-6-13.5-6
		c-3.9,0-7.6,0.9-11,2.8c-3.4,1.9-6.4,4.2-9.2,7.2c-2.8,2.9-5.2,6.2-7.4,9.8c-2.1,3.6-3.9,7.3-5.4,10.9c-1.4,3.7-2.5,7.1-3.3,10.4
		c-0.7,3.2-1.1,5.9-1.1,8.1c0,0.8,0.3,2,0.9,3.6c0.6,1.6,1.6,3.2,2.9,4.9c1.3,1.7,3,3.1,5.1,4.4c2.1,1.3,4.6,2,7.5,2
		c2.4,0.1,4.8-0.3,7.1-1.2c2.4-0.9,4.7-2.2,6.9-3.8c2.3-1.6,4.4-3.5,6.5-5.7c2.1-2.2,4.1-4.5,6-6.8c2,0.3,3.9,0.2,5.8-0.2
		s3.8-1,5.6-1.9c1.8-0.9,3.6-1.9,5.3-3.1c1.7-1.2,3.3-2.4,4.8-3.6c3.4-3,6.6-6.4,9.8-10.4c0.6-1.1,1.1-2.1,1.5-3.2
		c0.9-1.4,1.8-2.8,2.6-4.1c1.4-2.2,2.5-4.2,3.4-6c1.1-2.1,2-4.2,2.8-6c0.2-0.3,0.3-0.5,0.4-0.8c0.1-0.3,0.2-0.5,0.4-0.8
		c0.4,0.1,0.8,0.1,1.1,0.1h1.1c1.6,0,2.9,0,4.1,0.1c1.2,0,2.1,0.1,3,0.2c-1.8,2.9-3.7,6.4-5.8,10.5c-2.1,4.1-4,8.2-5.7,12.3
		c-1.7,4.1-3.1,7.9-4.3,11.4c-1.1,3.5-1.7,6.1-1.7,7.9c0.6,2.8,1.5,5.3,2.9,7.4c1.1,1.9,2.8,3.6,4.8,5.1c2.1,1.5,4.8,2.3,8.3,2.3
		c1.7,0,3.5-0.5,5.4-1.5c1.9-1,3.8-2.4,5.7-4.1c1.9-1.7,3.9-3.7,5.8-5.9c0.7-0.8,1.3-1.5,2-2.3c0.1,1.1,0.3,2.3,0.7,3.5
		c0.5,1.7,1.2,3.3,2.1,4.8c0.9,1.5,2,2.8,3.3,3.8c1.3,1,2.7,1.6,4.1,1.7h0.6V112c2.2-2.3,5.1-5.3,8.5-9c3.4-3.7,7.1-7.7,11-11.9
		c0.4,2.1,1.1,4.5,2,6.9c0.9,2.5,2.2,4.8,3.8,6.9c1.6,2.1,3.6,3.9,6,5.4c2.4,1.4,5.3,2.2,8.6,2.2c1.7,0,3.5-0.5,5.4-1.6
		c1.9-1,3.8-2.4,5.8-4.2c1.9-1.8,3.9-3.7,5.8-5.9c1.9-2.2,3.8-4.4,5.5-6.7c4-5.3,8.1-11.5,12.1-18.4c1-1.6,1.7-3.3,2.2-4.9
		c0.5-1.6,0.7-3.1,0.7-4.4C382.9,65.1,382.7,64.1,382.3,63.3z M228.6,69.7c-0.6,1.5-1.5,3.1-2.5,4.9c-1.2,0.1-2.4,0.5-3.7,1.4
		c-1.3,0.8-2.7,2.4-4.1,4.8c-0.8,1.4-1.3,2.7-1.5,3.9c-0.2,1.2-0.2,2.3,0,3.3c-1.6,1.9-3.1,3.7-4.7,5.4c-1.6,1.7-3.1,3.3-4.5,4.6
		c-1.4,1.3-2.7,2.4-3.9,3.1c-1.1,0.8-2.1,1.2-2.8,1.2c-1.7,0-2.4-1.1-2.4-3.3c0.1-2.2,0.7-4.9,1.9-8.2c1.2-3.3,2.8-6.8,4.9-10.6
		c2.1-3.8,4.3-7.4,6.7-10.6s4.8-6,7.3-8.1c2.5-2.2,4.7-3.3,6.7-3.3c1.2,0,2,0.8,2.7,2.5c0.6,1.6,0.9,3.5,0.9,5.4
		C229.6,67,229.3,68.2,228.6,69.7z"/>
	<path class="st3" d="M498.3,59.7c4,0,7,0.7,9.2,2c2.2,1.3,3.8,2.8,4.9,4.3c1.2,1.9,2,4,2.2,6.3c-1.5,0.3-2.8,0.4-3.8,0.1
		c-0.9-0.2-1.8-0.6-2.5-1.2c-0.8-0.6-1.2-1.7-1.2-3.2c0-0.5-0.7-0.7-2.1-0.6c-1.4,0.1-3.1,0.6-5.3,1.3s-4.4,1.8-6.9,3.1
		c-2.5,1.3-4.7,3-6.8,4.9c-1.2,1.2-2.5,2.5-3.8,3.9c-1.3,1.4-2.6,2.7-4,4.1c1.9,3.7,3.8,6.9,5.6,9.7c1.9,2.8,3.5,5.1,5,7
		c1.6,2.2,3.3,4.2,4.8,5.9c0,1-0.5,1.9-1.4,2.6c-0.9,0.7-2.1,1.4-3.5,2c-1.4,0.6-2.8,1-4.3,1.3c-1.5,0.3-2.9,0.4-4,0.4
		c-0.9,0-2.4-1.7-4.6-5.1c-2.1-3.4-4.5-7.8-7.2-13.3c-2.6,2.7-5.1,5.3-7.6,7.8c-2.5,2.5-5,4.7-7.4,6.6c-2.4,1.9-4.8,3.4-7.2,4.6
		c-2.3,1.2-4.6,1.7-6.9,1.7c-7.4,0-12.9-1.6-16.5-4.8c-3.6-3.2-5.2-7.2-4.9-12c0.3-4.8,2.7-10,7-15.6c4.4-5.6,10.7-10.8,19.1-15.7
		c0.7-0.4,1.6-1,2.7-1.7c1-0.7,2.1-1.4,3.1-2.1c1-0.7,2-1.4,3-2.1c0.9-0.7,1.7-1.3,2.4-1.7c-1.4-4.9-2.5-9.6-3.3-14.2
		c-0.8-4.6-1.2-9-1.2-13.2c0-5.2,1.1-9.4,3.2-12.7c2.1-3.3,4.8-5.6,8-7.2c3.2-1.5,6.6-2.3,10.3-2.3c3.7,0,7.1,0.6,10.3,1.9
		c3.2,1.3,5.8,3.1,8,5.4c2.1,2.3,3.2,5.1,3.2,8.3c0,2.7-0.8,5.5-2.4,8.5c-1.6,2.9-3.7,5.9-6.2,8.8c-2.5,3-5.3,5.8-8.3,8.6
		c-3,2.8-6,5.4-8.8,7.9c0.7,2.4,1.4,4.7,2.1,6.9c0.7,2.2,1.6,4.4,2.5,6.5c4.1-4,8.3-7.4,12.5-10.1C489.8,61,494.1,59.7,498.3,59.7z
		 M440.7,109.5c0.8,0,2-0.7,3.5-2.2c1.5-1.5,3.2-3.4,5.2-5.8c2-2.4,4.2-5.1,6.6-8.2c2.4-3,5-6.2,7.7-9.4c-1-2.4-1.9-4.9-2.8-7.4
		c-0.9-2.6-1.8-5.1-2.7-7.8c-0.9,0.7-1.7,1.3-2.5,1.9c-0.7,0.6-1.4,1.1-2.1,1.5c-3.7,3-7,6.1-9.8,9.3c-1.2,1.4-2.4,2.9-3.6,4.4
		c-1.2,1.6-2.2,3.2-3.2,4.8c-0.9,1.6-1.7,3.3-2.2,5.1c-0.5,1.7-0.8,3.5-0.8,5.2c0,2.4,0.3,4.2,1,5.4c0.7,1.2,1.4,2,2.3,2.5
		C438.3,109.3,439.4,109.5,440.7,109.5z M474.9,15.3c-1.9,0-3.5,0.6-4.9,1.7c-1.4,1.1-2.5,2.4-3.4,3.9c-0.9,1.5-1.5,3-1.9,4.4
		c-0.4,1.5-0.6,2.6-0.6,3.3c0,4,0.2,7.9,0.6,11.6c0.4,3.7,0.9,7.3,1.6,10.7c4.8-4.4,8.2-8.8,10.3-13.1c2.1-4.3,3.2-8.1,3.5-11.4
		c0.2-3.3-0.2-6-1.2-8.1C477.7,16.3,476.4,15.3,474.9,15.3z"/>
	<path class="st3" d="M654.9,2.6c7.2,0.2,13.6,1.6,19.3,4c2.4,1.1,4.8,2.4,7.1,4c2.3,1.6,4.4,3.6,6.2,6.1c1.8,2.4,3.3,5.3,4.4,8.5
		c1.1,3.3,1.7,7.1,1.7,11.4c0,4.5-0.8,8.8-2.3,12.8c-1.6,4-3.6,7.7-6.2,11.1c-2.6,3.4-5.5,6.4-8.8,9.1c-3.3,2.7-6.7,5-10.2,6.9
		c-3.5,1.9-6.9,3.3-10.3,4.3c-3.4,1-6.5,1.5-9.3,1.5c-2.7,0-5.3-0.4-7.6-1.1s-4.5-1.7-6.4-2.8c-1.9-1.2-3.6-2.5-5.1-4
		c-1.5-1.5-2.7-3-3.7-4.4c-2.4,5.2-4.7,10.2-6.9,15c-2.2,4.8-4.1,9.2-5.7,13.2c-1.6,4-3,7.3-4,10.1c-1,2.8-1.6,4.7-1.7,5.7
		c-1.6,0-3.1-0.5-4.4-1.5c-1.3-1-2.5-2.2-3.4-3.7c-0.9-1.5-1.7-3.1-2.2-4.8c-0.5-1.7-0.8-3.3-0.8-4.8c0-1.2,0.6-3.6,1.9-7.1
		c1.2-3.5,2.9-7.7,4.9-12.5c2.1-4.8,4.4-10.1,7-15.9c2.6-5.8,5.4-11.6,8.2-17.3c2.8-5.7,5.5-11.2,8.2-16.6c2.7-5.3,5.1-9.9,7.4-13.9
		c-4.2,1.2-8.8,2.8-13.7,4.9c-4.9,2.1-9.7,4.9-14.4,8.2c-4.7,3.3-8.9,7.2-12.8,11.9c-3.9,4.6-6.9,10-9,16.1c-1.4,4-2.2,7.2-2.3,9.6
		c-0.1,2.5,0.1,4.4,0.6,5.7c0.5,1.4,1.2,2.3,2,2.7c0.8,0.5,1.5,0.7,2,0.7c0.9-0.4,1.8-0.7,2.8-0.7c0.9-0.1,1.8,0,2.7,0.3
		c0.8,0.3,1.5,0.7,2,1.4c0.5,0.6,0.7,1.3,0.7,2.2c0,1-0.8,1.8-2.4,2.5c-1.6,0.7-3.7,1-6.4,1c-1.5,0-3.3-0.6-5.3-1.8
		c-2.1-1.2-4.1-2.9-6-5.2c-1.9-2.3-3.6-5-4.9-8.2c-1.3-3.2-2-6.7-2-10.7c0-3.5,0.9-7.2,2.7-11.2c1.8-4,4.4-8,7.8-12
		c3.4-4,7.6-7.8,12.6-11.5c5-3.7,10.6-6.9,16.9-9.8c6.3-2.8,13.2-5.1,20.8-6.8c7.6-1.7,15.7-2.5,24.5-2.5H654.9z M642.8,67.6
		c4,0,8-0.9,12.2-2.8c4.2-1.9,7.9-4.4,11.3-7.5c3.4-3.1,6.1-6.7,8.3-10.7c2.1-4,3.2-8.2,3.2-12.5c0-4.4-1-8-3.2-10.8
		c-2.1-2.8-4.7-5-7.7-6.6c-0.4-0.2-1.9-0.7-4.5-1.5c-2.6-0.7-6.8-1.2-12.5-1.4c-0.2,0.6-0.9,2.3-2.2,5.1c-1.3,2.8-3,6.4-5,10.7
		c-2,4.3-4.3,9.1-6.9,14.5c-2.6,5.4-5.1,10.9-7.8,16.6c1.2,1.7,2.9,3.3,5.3,4.8C635.6,66.9,638.8,67.6,642.8,67.6z"/>
	<path class="st3" d="M848.8,16.4c-0.9-1.2-2-2.3-3.2-3.3s-2.5-1.8-3.8-2.5c-1.3-0.7-2.3-1-3.1-1c-0.9,0-1.9,0.6-3,1.9
		c-1.1,1.3-2.2,2.9-3.3,4.9c-1.1,2-2.3,4.2-3.3,6.6c-1.1,2.4-2,4.7-2.9,6.9c-0.8,2.2-1.5,4.2-2,6c-0.5,1.8-0.7,3.1-0.7,3.8
		c0,0.7,0.2,1.3,0.7,2c0.5,0.7,1.1,1.3,1.7,1.8c0.6,0.5,1.3,1,2,1.4c0.7,0.4,1.3,0.6,1.7,0.6c0.3,0,1.1-0.6,2.3-1.7
		c1.2-1.1,2.5-2.6,4-4.4c1.5-1.8,3.1-3.8,4.8-5.9c1.7-2.1,3.2-4.1,4.6-6c1.4-1.9,2.6-3.5,3.5-4.9c0.9-1.4,1.4-2.3,1.4-2.7
		C850.1,18.7,849.7,17.6,848.8,16.4z"/>
	<path class="st3" d="M1032.5,66c-0.1-1.2-0.4-2.1-0.9-2.8s-1-1-1.6-1c-1.6,2.3-3.3,4.8-5.2,7.6c-1.9,2.8-3.9,5.6-6.1,8.5
		c-2.2,2.9-4.4,5.8-6.8,8.7c-2.3,2.9-4.8,5.6-7.4,8.1c-0.7-2.4-1.4-4.7-2.3-7c-0.9-2.3-1.7-4.4-2.4-6.4c-0.7-2-1.4-3.9-1.9-5.7
		c-0.5-1.8-0.7-3.4-0.7-4.8c0-3.5,0.7-5.9,2-7.3c1.4-1.4,2.9-2.3,4.5-2.7c1.9-0.4,4.1-0.4,6.6,0.1c0-2.2-0.4-4-1.3-5.5
		c-0.9-1.5-2-2.8-3.3-3.7c-1.4-1-2.9-1.6-4.6-2c-1.7-0.4-3.4-0.6-5.1-0.6c-1.5,0-3,0.6-4.6,1.7c-1.6,1.1-3.1,2.6-4.4,4.5
		c-1.3,1.9-2.4,4.1-3.3,6.7c-0.9,2.6-1.3,5.3-1.3,8.2c0,0.8,0,1.5,0.1,2.3c-0.7,0.9-1.4,1.9-2.1,2.8c-3.5,4.8-7,9.2-10.5,13.3
		c-3.4,4.1-6.6,7.5-9.5,10.3c-2.9,2.7-5.1,4.1-6.5,4.1c-0.4,0-0.4-0.8,0-2.3c0.4-1.5,1.1-3.6,2.2-6.2c1-2.6,2.3-5.7,3.8-9.3
		c1.5-3.5,3.2-7.3,5-11.2c1.8-3.9,3.7-7.9,5.6-12c1.9-4.1,3.8-8.1,5.6-12h8.6c2.3,0,3.6-0.1,3.8-0.3c0.6-0.3,1.1-0.7,1.4-1.4
		c0.4-0.7,0.7-1.4,0.9-2.1c0.2-0.7,0.3-1.5,0.3-2.2c0-0.8-0.1-1.3-0.2-1.7c-0.2-0.4-1.2-0.8-3.1-1c-1.9-0.3-4.3-0.6-7.2-0.9
		c2.3-4.9,4.2-8.9,5.7-12.1c1.5-3.2,2.2-5,2.2-5.3c0-1.1-0.4-2.2-1.1-3.3c-0.7-1.1-1.6-2.1-2.7-3c-1.1-0.9-2.2-1.6-3.3-2.1
		c-1.1-0.5-2.1-0.8-3-0.8c-0.4,0-1.1,0.7-2.1,2.1c-1,1.4-2.2,3.3-3.6,5.6c-1.4,2.4-2.9,5.1-4.6,8.3c-1.7,3.2-3.4,6.6-5.3,10.1
		c-3.6,0-6.8,0-9.5-0.1c-2.7,0-4.5,0.1-5.4,0.5c-1.5,0.7-2.7,2.1-3.7,4.1c-1,2-1.4,4-1.2,5.9c1.7-0.1,3.8-0.1,6.1-0.2
		c2.3,0,5.3-0.1,8.9-0.2c-2.5,5.1-4.9,10.2-7.2,15.3c-1.1,2.4-2.2,4.8-3.2,7.1l0,0c-1.3,1.7-2.7,3.3-4.1,4.9
		c-4.3,4.9-8.6,9.1-12.7,12.7c-4.2,3.6-8,6.4-11.5,8.5s-6.2,3.1-8,3.1c-0.7,0-1.7-0.2-2.8-0.7c-1.1-0.4-2.2-1.1-3.1-2
		c-1-0.9-1.8-1.9-2.5-3.2c-0.7-1.2-1.1-2.6-1.1-4.2c0-2.2,0.4-4.7,1.3-7.4c0.9-2.7,2-5.3,3.4-8c1.4-2.6,2.9-5.2,4.6-7.6
		c1.6-2.4,3.3-4.6,4.9-6.5c1.6-1.9,3.1-3.4,4.3-4.5c1.3-1.1,2.2-1.7,2.9-1.7c1.9,0,3.2,0.7,3.8,2.2c0.7,1.4,0.9,3.2,0.6,5.3
		c-0.3,2.1-0.8,4.2-1.7,6.6c-0.9,2.3-1.9,4.3-3.1,6c0.4,0.4,1.1,0.4,2-0.1c0.9-0.5,1.9-1.2,3-2.2c1.1-1,2.3-2.2,3.4-3.7
		c1.1-1.5,2.2-3,3.2-4.6c1-1.6,1.8-3.2,2.4-4.9c0.6-1.7,0.9-3.3,0.9-4.8c0-1.3-0.6-2.8-1.9-4.3c-1.3-1.6-2.9-2.9-4.9-4
		c-2-1.1-4.3-1.9-6.9-2.3c-2.6-0.4-5.1-0.1-7.5,1c-1.8,0.7-3.8,2.1-6,4c-2.2,1.9-4.5,4.2-6.8,6.8c-2.3,2.6-4.6,5.5-6.7,8.6
		c-1.6,2.3-3.1,4.6-4.4,6.9c0,0,0,0,0,0c-1.4,1.7-2.8,3.4-4.2,5c-4.3,4.9-8.6,9.1-12.7,12.7c-4.2,3.6-8,6.4-11.5,8.5s-6.2,3.1-8,3.1
		c-0.7,0-1.7-0.2-2.8-0.7c-1.1-0.4-2.2-1.1-3.1-2c-1-0.9-1.8-1.9-2.5-3.2c-0.7-1.2-1.1-2.6-1.1-4.2c0-0.7,0-1.3,0.1-2
		c0.1-0.7,0.2-1.4,0.4-2c1.6,1.8,3.5,2.6,5.9,2.3c2.4-0.3,4.9-1.3,7.5-3c2.6-1.7,5.3-3.9,7.9-6.5c2.6-2.7,5-5.5,7.1-8.3
		c2.1-2.9,3.7-5.7,5.1-8.3c1.3-2.7,2-4.9,2-6.6c0-1.3-0.6-2.8-1.9-4.5s-2.9-3.2-4.9-4.5c-2-1.3-4.3-2.2-6.9-2.7
		c-2.6-0.5-5.1-0.3-7.5,0.8c-1.8,0.7-3.8,2.1-6.1,4c-2.2,1.9-4.5,4.2-6.8,6.8c-2.3,2.6-4.6,5.5-6.7,8.6c-1.9,2.6-3.6,5.3-5.1,8
		c-1.7,2.1-3.7,4.4-5.8,7c-3,3.6-6.1,7.4-9.5,11.4c-3.3,4-6.8,8.1-10.4,12.3s-7.1,8.2-10.6,12.1c1.9-4.1,3.9-8.4,5.9-12.7
		c2-4.4,4.1-8.6,6-12.8c2-4.2,3.8-8.1,5.6-11.9s3.2-7,4.5-9.9c1.3-2.8,2.3-5.1,3.1-6.9c0.8-1.8,1.2-2.8,1.2-3c0-1.1-0.4-2.2-1.1-3.3
		c-0.7-1.1-1.7-2.1-2.7-3c-1.1-0.9-2.2-1.6-3.3-2.1c-1.1-0.5-2.1-0.8-2.9-0.8c-0.5,0-1.6,1.3-3.2,4c-1.7,2.7-3.6,6.2-5.9,10.6
		c-1.4,2.6-2.8,5.4-4.4,8.5c-1.5,1.7-3.1,3.3-4.6,4.8c-4.4,4.2-8.8,6.9-13.3,8.1c1.9-3.2,3.4-6.2,4.5-8.9c1.1-2.8,1.7-4.9,1.7-6.4
		c0-6.7-1.5-12-4.4-16c-3-4-7.5-6-13.5-6c-3.9,0-7.6,0.9-11,2.8c-3.4,1.9-6.4,4.2-9.2,7.2c-2.8,2.9-5.2,6.2-7.3,9.8
		c-0.7,1.2-1.4,2.5-2.1,3.7c-0.8,1.1-1.6,2.1-2.4,3.2c-3.5,4.8-7,9.2-10.5,13.3c-3.5,4.1-6.6,7.5-9.5,10.3c-2.9,2.7-5.1,4.1-6.6,4.1
		c-0.7,0-0.8-1.1-0.1-3.2c0.7-2.1,1.7-4.8,3-8c1.4-3.2,2.9-6.7,4.7-10.5c1.8-3.8,3.4-7.4,5-10.7c1.6-3.4,2.9-6.2,4-8.6
		c1.1-2.3,1.7-3.7,1.7-4c0-1.4-0.6-2.8-1.9-4.3c-1.2-1.5-2.6-2.6-4.2-3.5c-0.5-0.3-0.9-0.5-1.1-0.6c-2.6-1.3-5.2-2.2-7.6-2.7
		c-2.4-0.5-4.6-0.8-6.4-0.9c0.6-1,1.2-2.1,1.8-3.3c0.6-1.2,1.2-2.5,1.7-3.8c0.5-1.3,0.9-2.5,1.2-3.5c0.3-1.1,0.5-1.9,0.5-2.6
		c0-0.8-0.5-1.8-1.4-2.8c-0.9-1-2.1-2-3.3-2.9c-1.3-0.9-2.6-1.6-4-2.2c-1.4-0.6-2.4-0.9-3.3-0.9c-1.2,0-2.3,0.9-3.4,2.8
		c-1.1,1.9-2.1,4-3,6.5c-0.9,2.5-1.6,4.9-2.2,7.4c-0.6,2.5-0.9,4.4-0.9,5.7s0.4,2.6,1.1,3.8s1.7,2.2,3,3c-1,2.2-2.1,4.6-3.4,7.1
		c-1.3,2.5-2.5,4.8-3.6,6.9c-1.2,2.2-2.2,4-3.1,5.5c-0.9,1.5-1.6,2.5-1.8,3c-1.1,1.8-1.5,3.2-1.3,4.2c0.2,1,0.8,1.5,1.8,1.6
		c1,0.1,2.2-0.4,3.6-1.3c1.4-0.9,2.9-2.4,4.4-4.4c1.6-2.4,3.1-4.7,4.5-6.9c1.4-2.2,2.5-4.2,3.4-6c1.1-2.1,2-4.2,2.8-6
		c0.2-0.3,0.3-0.5,0.4-0.8c0.1-0.3,0.2-0.5,0.4-0.8c0.4,0.1,0.8,0.1,1.1,0.1h1c1.6,0,2.9,0,4.1,0.1c1.2,0,2.1,0.1,3,0.2
		c-1.8,2.9-3.8,6.4-5.8,10.5c-2.1,4.1-3.9,8.2-5.7,12.3c-1.7,4.1-3.1,7.9-4.3,11.4c-1.1,3.5-1.7,6.1-1.7,7.9
		c0.6,2.8,1.5,5.3,2.8,7.4c1.2,1.9,2.8,3.6,4.8,5.1c2.1,1.5,4.8,2.3,8.3,2.3c1.7,0,3.5-0.5,5.4-1.5c1.9-1,3.8-2.4,5.8-4.1
		c1.9-1.7,3.9-3.7,5.8-5.9c1.3-1.4,2.5-2.9,3.7-4.4c0,0.5-0.1,1-0.1,1.4c0,0.8,0.3,2,0.9,3.6s1.6,3.2,2.9,4.9c1.3,1.7,3,3.1,5.1,4.4
		c2.1,1.3,4.6,2,7.5,2c2.4,0.1,4.8-0.3,7.1-1.2c2.4-0.9,4.7-2.2,6.9-3.8c2.3-1.6,4.4-3.5,6.5-5.7c2.1-2.2,4.1-4.5,6-6.8
		c2,0.3,3.9,0.2,5.9-0.2c1.9-0.4,3.8-1,5.6-1.9c1.3-0.6,2.6-1.3,3.8-2.1c-1,2.2-2.1,4.4-3.1,6.6c-2.9,6.1-5.6,12.3-8.4,18.4
		c-2.8,6.1-5.2,11.8-7.3,17c-2.8,2-5.3,4.1-7.5,6.4c-2.2,2.3-3.3,4.6-3.3,6.8c0,2.9,0.5,5.1,1.6,6.7s2,2.8,3,3.5
		c1.3,1.1,2.8,1.8,4.3,1.8c1.6,0,3.1-0.4,4.7-1.4c1.6-1,3.1-2.3,4.5-4.1c1.4-1.8,2.7-3.9,3.6-6.5c0.2-0.3,0.5-1,0.9-2
		c0.5-1,1-2.3,1.7-3.8c3.5-2.9,7.3-6.4,11.3-10.4c4-4.1,7.9-8.4,11.9-12.9c3.9-4.5,7.7-9.1,11.3-13.7c2.4-3.1,4.7-6,6.8-8.8
		c0.3,2.3,1,4.4,2.3,6.3c1.6,2.5,3.6,4.6,5.9,6.2c2.3,1.7,4.7,2.9,7.2,3.8c2.5,0.8,4.7,1.3,6.5,1.3c2.3,0,4.7-0.5,7.3-1.6
		c2.6-1,5.1-2.4,7.8-4.2s5.2-3.7,7.8-5.9c2.6-2.2,5-4.4,7.4-6.8c1-1,2-2,3-3c-0.1,0.6-0.1,1.1-0.1,1.7c0,3.2,0.8,6.1,2.4,8.5
		c1.6,2.5,3.6,4.6,5.9,6.2c2.3,1.7,4.7,2.9,7.2,3.8c2.5,0.8,4.7,1.3,6.5,1.3c2.3,0,4.7-0.5,7.3-1.6c2.6-1,5.2-2.4,7.8-4.2
		c2.6-1.8,5.2-3.7,7.8-5.9c2.6-2.2,5-4.4,7.4-6.8c0.8-0.7,1.5-1.5,2.3-2.2c-0.9,2.8-1.4,4.7-1.4,5.8c0,1.5,0.3,3.1,1,4.8
		c0.7,1.7,1.6,3.3,2.9,4.8c1.3,1.5,2.9,2.7,4.9,3.7c2,1,4.4,1.5,7.1,1.5c1.7,0,3.5-0.5,5.4-1.5c1.9-1,3.8-2.4,5.7-4.1
		c1.9-1.7,3.9-3.7,5.8-5.9c1.9-2.2,3.8-4.4,5.5-6.7c2.6-3.4,5.1-7.2,7.7-11.2c0.4,1.4,0.8,2.8,1.3,4.2c0.9,2.8,1.7,5.6,2.5,8.3
		c0.8,2.7,1.1,5.3,1.1,7.8c0,1.5-0.2,2.6-0.5,3.3c-3.8,1.8-7.4,2.7-10.9,2.7c0-0.6-0.4-1-1.1-1.4s-1.6-0.6-2.5-0.7
		c-0.9-0.1-1.7,0-2.5,0.4c-0.7,0.3-1.1,0.9-1.1,1.9c0,1.9,0.9,3.5,2.7,4.7c1.8,1.2,3.9,2.2,6.6,2.8c2.6,0.6,5.4,0.9,8.5,0.8
		c3.1-0.1,5.9-0.5,8.5-1.4c2.6-0.8,4.8-2,6.6-3.5c1.8-1.5,2.6-3.4,2.6-5.7v-1.4c3-2.4,5.9-5.3,8.7-8.8c2.8-3.5,5.3-6.8,7.5-9.9
		c2.6-3.7,4.9-7.5,7.2-11.4c1.1-2,1.8-3.8,2.2-5.5C1032.5,68.7,1032.6,67.2,1032.5,66z M852.4,74.6c1.9-3.3,3.9-6.3,5.9-9
		c2-2.7,3.9-4.9,5.7-6.6c1.8-1.7,3.1-2.5,3.9-2.5c1.2,0,2.2,0.5,2.9,1.4c0.7,1,1.1,1.7,1.1,2.3c0,0.9-0.4,2.1-1.2,3.6
		c-0.8,1.5-1.8,3.2-3.1,5s-2.7,3.5-4.4,5.3c-1.6,1.8-3.3,3.4-5.1,4.9c-1.8,1.5-3.6,2.8-5.3,3.8s-3.4,1.5-4.9,1.6
		C849,81.2,850.5,77.9,852.4,74.6z M782.2,69.7c-0.6,1.5-1.5,3.1-2.5,4.9c-1.1,0.1-2.4,0.5-3.7,1.4c-1.3,0.8-2.7,2.4-4.1,4.8
		c-0.8,1.4-1.3,2.7-1.5,3.9c-0.2,1.2-0.2,2.3,0,3.3c-1.6,1.9-3.1,3.7-4.7,5.4c-1.6,1.7-3.1,3.3-4.5,4.6c-1.4,1.3-2.7,2.4-3.9,3.1
		c-1.2,0.8-2.1,1.2-2.8,1.2c-1.6,0-2.4-1.1-2.4-3.3c0.1-2.2,0.7-4.9,1.9-8.2c1.2-3.3,2.8-6.8,4.9-10.6c2.1-3.8,4.3-7.4,6.7-10.6
		c2.4-3.3,4.8-6,7.3-8.1c2.5-2.2,4.7-3.3,6.7-3.3c1.1,0,2,0.8,2.7,2.5c0.6,1.6,0.9,3.5,0.9,5.4C783.2,67,782.8,68.2,782.2,69.7z"/>
</g>
</svg>
