<svg xmlns="http://www.w3.org/2000/svg" viewBox="0 0 216.26 698.2"><defs><style>.cls-1{fill:#c9c9c9;}</style></defs><title>elucidator_1</title><g id="Layer_2" data-name="Layer 2"><g id="Layer_1-2" data-name="Layer 1"><path class="cls-1" d="M167.44,467.52a101.42,101.42,0,0,0-17-20.83l16.09-20.43-32.17,6.45h0l-15.6-75v-267A133.15,133.15,0,0,0,83.27,0a133.15,133.15,0,0,0-35.5,90.71v267l-15.6,75h0L0,426.26l16.09,20.43-5.84,10.72L31.13,468.6c.56-.58,1.15-1.13,1.73-1.69l1.35-1.26c.44-.4.88-.78,1.33-1.17s.85-.73,1.28-1.09l1.49-1.19c.41-.32.82-.65,1.24-1s1.08-.79,1.63-1.18l1.21-.85c.58-.39,1.16-.76,1.75-1.13.4-.26.8-.52,1.21-.77.6-.36,1.21-.72,1.83-1.07.41-.23.81-.47,1.23-.69.62-.34,1.25-.66,1.88-1,.43-.22.85-.44,1.27-.64.64-.31,1.28-.6,1.93-.89.44-.19.87-.4,1.32-.59.64-.27,1.29-.52,1.95-.77.46-.18.91-.37,1.38-.54.64-.24,1.3-.45,2-.67l1.44-.49c.65-.2,1.31-.38,2-.56.5-.14,1-.29,1.51-.42s1.32-.32,2-.47,1-.25,1.56-.35,1.34-.25,2-.37l1.58-.28c.69-.1,1.4-.18,2.11-.27.51-.06,1-.14,1.54-.19.78-.08,1.57-.13,2.36-.18.45,0,.9-.08,1.35-.1,1.19-.06,2.39-.09,3.6-.1h.15c1.22,0,2.44,0,3.65.09h.21c1.11.06,2.22.15,3.32.25l.49,0c1,.11,2,.24,3,.38l.53.08c1.08.17,2.15.36,3.22.57l.23.05q3.42.69,6.7,1.7l.13,0c.54.16,1.07.35,1.6.53a74,74,0,0,1,26.26,15.49c.46.42.92.84,1.36,1.28,1.3,1.24,2.34,2.33,3.1,3.17a73.8,73.8,0,0,1,15.36,25.91l27.09.11A101.6,101.6,0,0,0,167.44,467.52Z"/><path d="M164.68,468.21a96.55,96.55,0,0,0-18.21-20.93l12.51-17-27.15,5.53H128.5l-13.8-74.25V96.93c0-34.7-11.91-66.28-31.43-89.9-19.52,23.62-31.43,55.2-31.43,89.9V361.54L38,435.87H83.29L35.58,436,6.05,430q7.4,8.69,14.81,17.36L15.24,456l15.49,9c4.44-4.14,23.87-21.31,53.36-21.19,3,0,37.38.71,59.4,28.42a73.73,73.73,0,0,1,13.19,26.05l20.86.36A97.07,97.07,0,0,0,164.68,468.21Z"/><path class="cls-1" d="M179.54,498.62l36.72,8.93-36.72,9.2Z"/><path d="M169.91,498.62l36.73,8.93-36.73,9.2Z"/><path class="cls-1" d="M191.49,506.94a14.5,14.5,0,0,0-6.38-10.54l-13.53.08a6.65,6.65,0,0,0-13.28-.17H104.24a15.43,15.43,0,0,0-.42-9,15.21,15.21,0,0,0-4.47-6.41,177.3,177.3,0,0,0,2.06-26.05,177.59,177.59,0,0,0-2.48-30.4c17-27.5,24.28-51.58,17.17-58-1.71-1.53-6.25-3.86-9.84-5.34a55.74,55.74,0,0,0-14.81-3.83c.62-7.56.77-13.78.77-18.38,0-2.74-.07-5.53-2-7.66-2.16-2.32-5.41-2.57-6.92-2.58v0c-1.52,0-4.75.26-6.91,2.57-2,2.13-2,4.92-2,7.66,0,4.61.14,10.82.77,18.39a55.35,55.35,0,0,0-14.81,3.83c-3.59,1.48-8.14,3.8-9.84,5.33-7.11,6.39.14,30.47,17.17,58a176.76,176.76,0,0,0-.42,56.44,15.2,15.2,0,0,0-4.9,15.39l0,.11H47.77a22,22,0,0,0,0,23.29v0H185.11A14,14,0,0,0,191.49,506.94Z"/><path d="M188.17,509.83c.82-6.13-3.55-10.47-4.08-11l-13.45-.48a5.61,5.61,0,1,0-11.15.18l-57.87.3a18.58,18.58,0,0,0-1.15-11.63,17.66,17.66,0,0,0-3.37-4.91,220,220,0,0,0,1.77-25.1,220.34,220.34,0,0,0-2.1-33.42c15.2-24.22,21.1-45.82,14.74-51.72a41.72,41.72,0,0,0-8.47-5.15,49.07,49.07,0,0,0-13.67-4.15c.09-2.9.22-7.32.34-12.77.17-8,.18-11.4-2.12-13.2a6.54,6.54,0,0,0-4.35-1.15v0a6.07,6.07,0,0,0-3.95,1c-2.28,1.65-2.44,4.95-2.35,12.68,0,4,.15,8.41.34,13.28-1.41.32-3.4.82-5.74,1.52a57.31,57.31,0,0,0-8.09,2.82A41.91,41.91,0,0,0,55,372.08c-5.41,4.67,0,26.32,14.72,51.45a221.84,221.84,0,0,0-2.08,33.69,224.8,224.8,0,0,0,1.77,25.1,18.14,18.14,0,0,0-3.85,6.18,18.4,18.4,0,0,0-.69,10.1H50.3a16,16,0,0,0-.51,18.12l135.21-.2A12.49,12.49,0,0,0,188.17,509.83Z"/><path class="cls-1" d="M106.25,529.11c-1.2,3.1-2.38,6.22-3.57,9.32H63.87q-1.78-4.66-3.58-9.34,1.8-4.7,3.58-9.38h38.8v0Q104.46,524.42,106.25,529.11Z"/><path class="cls-1" d="M100.43,672.73v0H66.11q-1.59,4.69-3.17,9.38,1.59,4.68,3.17,9.34v2.64a4.13,4.13,0,0,0,4.13,4.13H96.3a4.13,4.13,0,0,0,4.13-4.13v-2.62q1.59-4.66,3.17-9.34Q102,677.43,100.43,672.73Z"/><path class="cls-1" d="M106.25,529.11c-1.2,3.1-2.38,6.22-3.57,9.32H63.87q-1.78-4.66-3.58-9.34,1.8-4.7,3.58-9.38h38.8v0Q104.46,524.42,106.25,529.11Z"/><rect x="16.13" y="588.41" width="134.28" height="34.32" transform="translate(688.84 522.3) rotate(90)"/><circle class="cls-1" cx="83.27" cy="498.62" r="12.74"/><path d="M97.79,513.14a14.53,14.53,0,0,1-13.93-13.93A14.52,14.52,0,0,1,97.79,513.14Z"/><path d="M82.68,499.21a14.53,14.53,0,0,1-13.93,13.93A14.52,14.52,0,0,1,82.68,499.21Z"/><path d="M82.68,498A14.52,14.52,0,0,1,68.75,484.1,14.52,14.52,0,0,1,82.68,498Z"/><path d="M97.79,484.1A14.52,14.52,0,0,1,83.86,498,14.52,14.52,0,0,1,97.79,484.1Z"/><circle cx="83.27" cy="498.62" r="1.31"/></g></g></svg>