<svg xmlns="http://www.w3.org/2000/svg" xmlns:xlink="http://www.w3.org/1999/xlink" viewBox="0 0 1173.56 764.76"><defs><style>.cls-1{fill:none;}.cls-2{isolation:isolate;}.cls-3{clip-path:url(#clip-path);}.cls-4{fill:#ff7b7b;}.cls-5{clip-path:url(#clip-path-2);}.cls-6{clip-path:url(#clip-path-3);}.cls-7{clip-path:url(#clip-path-4);}.cls-8{clip-path:url(#clip-path-5);}</style><clipPath id="clip-path" transform="translate(-16.5 -119.63)"><polygon class="cls-1" points="417.79 893.95 0 651.15 224.91 521.3 642.71 764.09 417.79 893.95"/></clipPath><clipPath id="clip-path-2" transform="translate(-16.5 -119.63)"><polygon class="cls-1" points="669.96 482.72 252.17 239.93 477.08 110.07 894.88 352.87 669.96 482.72"/></clipPath><clipPath id="clip-path-3" transform="translate(-16.5 -119.63)"><polygon class="cls-1" points="981.65 893.95 563.86 651.15 788.77 521.3 1206.56 764.09 981.65 893.95"/></clipPath><clipPath id="clip-path-4" transform="translate(-16.5 -119.63)"><polygon class="cls-1" points="370.5 587.79 251.83 518.83 484.46 384.52 603.13 453.48 370.5 587.79"/></clipPath><clipPath id="clip-path-5" transform="translate(-16.5 -119.63)"><polygon class="cls-1" points="655.12 576.26 488.88 479.65 557.4 440.09 723.64 536.7 655.12 576.26"/></clipPath></defs><title>wire</title><g id="Layer_2" data-name="Layer 2"><g id="Layer_1-2" data-name="Layer 1"><g class="cls-2"><g class="cls-3"><path class="cls-4" d="M443.91,876.42c-14.39,8.31-37.74,8.3-52,0L30.18,666.22c-14.3-8.31-14.23-21.83.17-30.14l168.44-97.25c14.4-8.31,37.74-8.31,52.05,0L612.53,749c14.3,8.31,14.23,21.83-.17,30.15L443.91,876.42M196.68,537.6,28.23,634.85c-15.56,9-15.65,23.61-.18,32.6l361.69,210.2c15.47,9,40.72,9,56.29,0l168.44-97.26c15.57-9,15.65-23.61.19-32.6L253,537.6c-15.47-9-40.71-9-56.28,0" transform="translate(-16.5 -119.63)"/><path class="cls-4" d="M384.1,863.09,53.16,670.77,258.61,552.15,589.55,744.48,384.1,863.09M258.62,549.7,48.92,670.77,384.09,865.55l209.7-121.07L258.62,549.7" transform="translate(-16.5 -119.63)"/><polyline class="cls-4" points="241.07 526.65 241.83 528.33 347.75 512.29 347 510.61 241.07 526.65"/><polyline class="cls-4" points="70.91 552.43 71.66 554.11 177.26 538.12 176.51 536.44 70.91 552.43"/><polyline class="cls-4" points="199.31 550.87 171.33 612.03 174.23 612.47 202.21 551.31 199.31 550.87"/><polyline class="cls-4" points="244.44 452.24 216.4 513.5 219.31 513.94 247.34 452.69 244.44 452.24"/><path class="cls-4" d="M228.37,657.29l-11.81-6.86,16.2-2.51-4.39,9.37m-17.59-7.76,19.13,11.12L237,645.46l-26.24,4.07" transform="translate(-16.5 -119.63)"/><path class="cls-4" d="M273.54,772.06,231,747.36,387.56,657l42.51,24.71L273.54,772.06m114-117.54-160.8,92.84,46.75,27.16,160.79-92.83-46.74-27.17" transform="translate(-16.5 -119.63)"/><path class="cls-4" d="M300.18,787.54l-15.89-9.23,138.43-79.92,15.88,9.23L300.18,787.54m122.55-91.6L280.05,778.31,300.16,790l142.68-82.38-20.11-11.68" transform="translate(-16.5 -119.63)"/><path class="cls-4" d="M326.81,803l-15.88-9.23,138.42-79.92,15.89,9.23L326.81,803m122.56-91.61L306.68,793.79l20.11,11.69L469.47,723.1l-20.1-11.69" transform="translate(-16.5 -119.63)"/><path class="cls-4" d="M353.44,818.49l-15.88-9.22L476,729.35l15.87,9.22L353.44,818.49M476,726.89,333.31,809.27,353.42,821,496.1,738.57,476,726.89" transform="translate(-16.5 -119.63)"/><path class="cls-4" d="M409.39,840.49c-6.8,3.93-17.84,3.93-24.59,0s-6.73-10.32.08-14.25,17.83-3.93,24.59,0,6.72,10.32-.08,14.24M382.77,825c-8,4.61-8,12.1-.1,16.7s20.86,4.61,28.84,0,8-12.1.1-16.7-20.87-4.61-28.84,0" transform="translate(-16.5 -119.63)"/><path class="cls-4" d="M479.93,799.77c-6.81,3.93-17.85,3.93-24.6,0s-6.73-10.33.08-14.25,17.84-3.93,24.6,0,6.72,10.31-.08,14.24M453.3,784.3c-8,4.61-8,12.1-.1,16.7s20.86,4.61,28.84,0,8-12.1.1-16.7-20.87-4.61-28.84,0" transform="translate(-16.5 -119.63)"/><path class="cls-4" d="M129.75,596.27a7.55,7.55,0,0,1-6.85,0c-1.88-1.09-1.87-2.87,0-4a7.5,7.5,0,0,1,6.84,0c1.88,1.09,1.88,2.87,0,4m-8.94-5.19c-3.06,1.77-3.08,4.65,0,6.42a12.22,12.22,0,0,0,11.08,0c3.07-1.77,3.08-4.65,0-6.42a12.24,12.24,0,0,0-11.09,0" transform="translate(-16.5 -119.63)"/><path class="cls-4" d="M115.38,603.05a4.68,4.68,0,0,1-4.22,0c-1.16-.67-1.15-1.77,0-2.45a4.63,4.63,0,0,1,4.21,0,1.29,1.29,0,0,1,0,2.44m-6.32-3.67c-2.34,1.35-2.35,3.55,0,4.9a9.34,9.34,0,0,0,8.46,0c2.34-1.35,2.35-3.55,0-4.9a9.3,9.3,0,0,0-8.47,0" transform="translate(-16.5 -119.63)"/><path class="cls-4" d="M521.59,824c-6.81,3.93-17.84,3.93-24.61,0s-6.72-10.32.08-14.25,17.85-3.93,24.61,0,6.72,10.32-.08,14.25M495,808.51c-8,4.6-8,12.1-.09,16.7s20.86,4.61,28.84,0,8-12.1.09-16.7-20.86-4.61-28.84,0" transform="translate(-16.5 -119.63)"/><path class="cls-4" d="M547.24,760.91c-6.81,3.93-17.84,3.92-24.59,0s-6.73-10.32.07-14.25,17.84-3.93,24.61,0,6.71,10.32-.09,14.25m-26.63-15.48c-8,4.61-8,12.1-.09,16.71s20.86,4.6,28.84,0,8-12.1.09-16.71-20.86-4.6-28.84,0" transform="translate(-16.5 -119.63)"/><path class="cls-4" d="M122,615.05a5.61,5.61,0,0,1-5.11,0c-1.4-.81-1.39-2.14,0-3L157,588.92a5.59,5.59,0,0,1,5.1,0c1.4.81,1.4,2.14,0,3L122,615.05m32.94-27.36-40.14,23.18c-2.59,1.49-2.6,3.92,0,5.41a10.32,10.32,0,0,0,9.34,0l40.15-23.18c2.58-1.49,2.6-3.92,0-5.41a10.34,10.34,0,0,0-9.35,0" transform="translate(-16.5 -119.63)"/></g></g><g class="cls-2"><g class="cls-5"><path class="cls-4" d="M696.08,465.19c-14.39,8.31-37.74,8.31-52,0L282.35,255c-14.31-8.31-14.22-21.84.17-30.15L451,127.6c14.39-8.31,37.74-8.31,52.05,0L864.7,337.79c14.3,8.31,14.22,21.84-.17,30.15L696.08,465.19M448.85,126.37,280.4,223.62c-15.56,9-15.65,23.62-.18,32.61L641.91,466.42c15.47,9,40.72,9,56.29,0l168.44-97.25c15.57-9,15.65-23.62.19-32.6l-361.7-210.2c-15.47-9-40.71-9-56.28,0" transform="translate(-16.5 -119.63)"/><path class="cls-4" d="M636.27,451.86,305.33,259.54,510.77,140.93,841.71,333.25,636.27,451.86M510.79,138.47,301.09,259.54,636.26,454.32,846,333.25,510.79,138.47" transform="translate(-16.5 -119.63)"/><polyline class="cls-4" points="493.24 115.42 493.99 117.11 599.92 101.06 599.17 99.38 493.24 115.42"/><polyline class="cls-4" points="323.08 141.2 323.83 142.88 429.43 126.89 428.68 125.21 323.08 141.2"/><polyline class="cls-4" points="451.48 139.64 423.5 200.8 426.4 201.25 454.38 140.08 451.48 139.64"/><polyline class="cls-4" points="496.6 41.02 468.57 102.28 471.47 102.72 499.51 41.46 496.6 41.02"/><path class="cls-4" d="M480.54,246.06l-11.81-6.86,16.2-2.51-4.39,9.37m-17.6-7.76,19.13,11.12,7.11-15.19-26.24,4.07" transform="translate(-16.5 -119.63)"/><polyline class="cls-4" points="519.64 208.56 520.4 210.24 564.67 203.53 563.92 201.85 519.64 208.56"/><polyline class="cls-4" points="448.54 219.33 449.29 221.01 493.42 214.33 492.67 212.64 448.54 219.33"/><polyline class="cls-4" points="501.57 219.03 489.88 244.59 492.77 245.03 504.48 219.47 501.57 219.03"/><polyline class="cls-4" points="520.43 177.82 508.71 203.42 511.62 203.86 523.33 178.26 520.43 177.82"/><path class="cls-4" d="M523.72,332.3l-2.8-1.63,3.84-.6-1,2.23m-8.6-2.53,10.13,5.88,3.77-8-13.9,2.16" transform="translate(-16.5 -119.63)"/><path class="cls-4" d="M570.37,297.65l-15.89-9.23,98-56.56,15.89,9.23-98,56.56m82.09-68.24-102.22,59,20.11,11.68,102.21-59-20.1-11.68" transform="translate(-16.5 -119.63)"/><path class="cls-4" d="M596.13,313.51l-15.88-9.23,48.68-28.11,15.88,9.23-48.68,28.11m32.81-39.8L576,304.28,596.11,316l52.94-30.57-20.11-11.69" transform="translate(-16.5 -119.63)"/><polyline class="cls-4" points="580.83 244.11 581.58 245.79 625.85 239.08 625.1 237.4 580.83 244.11"/><polyline class="cls-4" points="509.72 254.88 510.48 256.56 554.6 249.88 553.85 248.2 509.72 254.88"/><polyline class="cls-4" points="562.76 254.59 551.06 280.15 553.96 280.59 565.66 255.03 562.76 254.59"/><polyline class="cls-4" points="581.62 213.38 569.89 238.98 572.8 239.42 584.51 213.82 581.62 213.38"/><path class="cls-4" d="M584.91,367.85l-2.81-1.63,3.84-.59-1,2.22m-8.61-2.53,10.13,5.89,3.77-8-13.9,2.15" transform="translate(-16.5 -119.63)"/><path class="cls-4" d="M631.55,333.2,615.67,324l98-56.56,15.88,9.23-98,56.55M713.64,265,611.42,324l20.12,11.69,102.21-59L713.64,265" transform="translate(-16.5 -119.63)"/><path class="cls-4" d="M657.31,349.06l-15.88-9.23,48.68-28.1L706,321l-48.69,28.1m32.82-39.79-52.94,30.57,20.1,11.68L710.23,321l-20.1-11.69" transform="translate(-16.5 -119.63)"/><path class="cls-4" d="M661.56,429.27c-6.8,3.93-17.84,3.93-24.6,0S630.24,419,637,415s17.84-3.93,24.6,0,6.72,10.32-.08,14.25m-26.64-15.48c-8,4.6-8,12.1-.09,16.71s20.87,4.6,28.84,0,8-12.1.09-16.71-20.86-4.61-28.84,0" transform="translate(-16.5 -119.63)"/><path class="cls-4" d="M732.1,388.54c-6.81,3.93-17.84,3.93-24.61,0s-6.72-10.31.09-14.24,17.83-3.93,24.59,0,6.73,10.32-.07,14.24m-26.64-15.47c-8,4.6-8,12.1-.09,16.7s20.86,4.61,28.84,0,8-12.1.09-16.7-20.86-4.61-28.84,0" transform="translate(-16.5 -119.63)"/><path class="cls-4" d="M381.92,185a7.55,7.55,0,0,1-6.85,0c-1.88-1.1-1.87-2.88,0-4a7.56,7.56,0,0,1,6.84,0c1.88,1.09,1.87,2.87,0,4M373,179.85c-3.07,1.77-3.09,4.65,0,6.43a12.21,12.21,0,0,0,11.09,0c3.07-1.77,3.08-4.65,0-6.42a12.24,12.24,0,0,0-11.09,0" transform="translate(-16.5 -119.63)"/><path class="cls-4" d="M367.55,191.82a4.62,4.62,0,0,1-4.22,0,1.29,1.29,0,0,1,0-2.44,4.68,4.68,0,0,1,4.22,0,1.29,1.29,0,0,1,0,2.44m-6.32-3.67c-2.34,1.35-2.35,3.55,0,4.9a9.32,9.32,0,0,0,8.45,0c2.34-1.35,2.35-3.55,0-4.9a9.34,9.34,0,0,0-8.46,0" transform="translate(-16.5 -119.63)"/><path class="cls-4" d="M773.75,412.75c-6.8,3.93-17.83,3.94-24.59,0s-6.73-10.33.08-14.26,17.83-3.92,24.59,0,6.72,10.32-.08,14.24m-26.63-15.47c-8,4.6-8,12.1-.09,16.7s20.86,4.61,28.84,0,8-12.1.09-16.7-20.86-4.61-28.84,0" transform="translate(-16.5 -119.63)"/><path class="cls-4" d="M799.41,349.68c-6.81,3.93-17.84,3.93-24.6,0s-6.72-10.32.08-14.25,17.84-3.92,24.59,0,6.73,10.33-.07,14.25M772.77,334.2c-8,4.61-8,12.1-.09,16.71s20.86,4.61,28.84,0,8-12.1.1-16.71-20.87-4.6-28.85,0" transform="translate(-16.5 -119.63)"/><path class="cls-4" d="M374.12,203.83a5.62,5.62,0,0,1-5.1,0c-1.4-.81-1.4-2.14,0-2.95l40.16-23.18a5.62,5.62,0,0,1,5.1,0c1.4.82,1.4,2.14,0,2.95l-40.16,23.19m33-27.37-40.16,23.18c-2.58,1.49-2.6,3.92,0,5.41a10.29,10.29,0,0,0,9.34,0l40.16-23.18c2.58-1.49,2.6-3.92,0-5.41a10.32,10.32,0,0,0-9.34,0" transform="translate(-16.5 -119.63)"/></g></g><g class="cls-2"><g class="cls-6"><path class="cls-4" d="M1007.77,876.42c-14.4,8.31-37.74,8.31-52,0L594,666.23c-14.3-8.32-14.22-21.84.17-30.15l168.45-97.25c14.39-8.31,37.73-8.31,52,0L1176.38,749c14.3,8.31,14.23,21.84-.16,30.15l-168.45,97.25M760.54,537.6,592.09,634.85c-15.57,9-15.65,23.61-.18,32.6L953.6,877.65c15.47,9,40.71,9,56.28,0l168.45-97.26c15.57-9,15.65-23.61.18-32.6L816.82,537.6c-15.47-9-40.72-9-56.28,0" transform="translate(-16.5 -119.63)"/><path class="cls-4" d="M948,863.09,617,670.77,822.46,552.16,1153.4,744.48,948,863.09M822.47,549.7,612.78,670.77,947.94,865.55l209.7-121.07L822.47,549.7" transform="translate(-16.5 -119.63)"/><polyline class="cls-4" points="881.84 614.19 924.38 709.5 927.29 709.07 884.75 613.75 881.84 614.19"/><path class="cls-4" d="M839.16,601.21l33.25,74.51,2.91-.44-32-71.63-4.19-2.44m-6-20.46-2.46,1.42,7,15.72,4.19,2.43-8.74-19.57" transform="translate(-16.5 -119.63)"/><polyline class="cls-4" points="656.52 551.71 655.75 553.39 819.78 578.28 820.55 576.6 656.52 551.71"/><polyline class="cls-4" points="920.75 591.81 919.99 593.49 1084.28 618.43 1085.05 616.74 920.75 591.81"/><path class="cls-4" d="M899,711.6l-27.92-4.34,20.52-11.85L899,711.6m-5.82-19.55-27.9,16.11,37.94,5.89-10-22" transform="translate(-16.5 -119.63)"/><path class="cls-4" d="M693.6,596.28a7.56,7.56,0,0,1-6.84,0c-1.89-1.1-1.87-2.88,0-4a7.58,7.58,0,0,1,6.85,0c1.87,1.09,1.87,2.87,0,4m-8.93-5.2c-3.07,1.77-3.09,4.65,0,6.42a12.24,12.24,0,0,0,11.09,0c3.07-1.77,3.08-4.65,0-6.42a12.22,12.22,0,0,0-11.08,0" transform="translate(-16.5 -119.63)"/><path class="cls-4" d="M679.23,603.05a4.63,4.63,0,0,1-4.21,0,1.29,1.29,0,0,1,0-2.44,4.62,4.62,0,0,1,4.22,0,1.29,1.29,0,0,1,0,2.44m-6.31-3.67c-2.34,1.35-2.36,3.55,0,4.9a9.34,9.34,0,0,0,8.46,0c2.35-1.35,2.35-3.55,0-4.9a9.34,9.34,0,0,0-8.46,0" transform="translate(-16.5 -119.63)"/><path class="cls-4" d="M1085.44,824c-6.8,3.92-17.84,3.92-24.6,0s-6.72-10.32.08-14.24,17.84-3.93,24.6,0,6.73,10.32-.08,14.25m-26.64-15.48c-8,4.6-8,12.1-.09,16.7s20.87,4.61,28.84,0,8-12.1.1-16.7-20.86-4.61-28.85,0" transform="translate(-16.5 -119.63)"/><path class="cls-4" d="M685.81,615.05a5.59,5.59,0,0,1-5.1,0c-1.41-.81-1.4-2.14,0-2.95l40.15-23.18a5.59,5.59,0,0,1,5.1,0c1.41.81,1.4,2.14,0,3l-40.15,23.17m33-27.36-40.15,23.18c-2.59,1.49-2.6,3.92,0,5.41a10.26,10.26,0,0,0,9.34,0l40.15-23.18c2.58-1.49,2.6-3.91,0-5.41a10.32,10.32,0,0,0-9.34,0" transform="translate(-16.5 -119.63)"/><path class="cls-4" d="M833.13,580.75l3.47-2,126,73.21-16,9.23L841.87,600.32l-4.19-2.43L820.62,588l10-5.8,2.46-1.42m3.48-4.47L816.37,588l22.79,13.24,4.19,2.44,103.24,60L966.83,652,836.61,576.28" transform="translate(-16.5 -119.63)"/></g></g><g class="cls-2"><g class="cls-7"><path class="cls-4" d="M466.5,407.76c-32.47,18.75-49.81,38.09-51.57,57.56-1.23,13.68,5.29,24,11.61,33.93,6.65,10.47,12.92,20.36,9.53,33.27-3.21,12.24-14.37,23.89-33.28,34.81a247.61,247.61,0,0,1-37.47,17.06l1.19,1.09a249.29,249.29,0,0,0,37.85-17.24c19.26-11.12,30.64-23,33.92-35.53,3.48-13.24-2.89-23.28-9.64-33.91-6.24-9.84-12.68-20-11.48-33.41,1.74-19.15,18.86-38.2,50.94-56.72q4.08-2.35,8.48-4.7l-1.58-.92q-4.41,2.35-8.5,4.71" transform="translate(-16.5 -119.63)"/><path class="cls-4" d="M486.37,407.82,468,397.17l25.16-3.9-6.82,14.55m-22.65-11.33L475,403.05l1.58.92,10.93,6.35,8.86-18.89-32.65,5.06" transform="translate(-16.5 -119.63)"/></g></g><g class="cls-2"><g class="cls-8"><path class="cls-4" d="M665.71,566.9l-23.42-1.2,13.58-11.15,9.84,12.35m-9.46-14.68-8.19,6.72,1.1.43-1.12,1-1.15-.44-8.26,6.78L669,568.25l-12.76-16" transform="translate(-16.5 -119.63)"/><path class="cls-4" d="M547,446.12c-6.43,3.72-11.14,7.8-14.07,12.22-8.75,13.18-2.32,30.48,18.11,48.7,20.7,18.48,53.85,36.74,95.9,52.86l1.15.44,1.12-1-1.1-.43c-84.44-32.36-131-73.49-113.29-100.19,2.82-4.25,7.38-8.21,13.62-11.81a88.79,88.79,0,0,1,11.11-5.33l-1.15-1a92.78,92.78,0,0,0-11.4,5.47" transform="translate(-16.5 -119.63)"/></g></g></g></g></svg>