<svg xmlns="http://www.w3.org/2000/svg" width="29.523" height="29.523" viewBox="0 0 29.523 29.523">
  <path id="dribbble-ball-mark" d="M14.762,0A14.762,14.762,0,1,0,29.523,14.762,14.766,14.766,0,0,0,14.762,0Zm9.75,6.8a12.551,12.551,0,0,1,2.85,7.845,29.771,29.771,0,0,0-8.774-.4c-.1-.208-.176-.432-.272-.656-.256-.608-.544-1.233-.833-1.825A16.875,16.875,0,0,0,24.512,6.8Zm-9.75-4.627a12.58,12.58,0,0,1,8.357,3.17,14.291,14.291,0,0,1-6.612,4.547A68.069,68.069,0,0,0,11.8,2.514,12.822,12.822,0,0,1,14.762,2.177ZM9.4,3.362a79.564,79.564,0,0,1,4.675,7.285A47.285,47.285,0,0,1,2.418,12.184,12.667,12.667,0,0,1,9.4,3.362ZM2.145,14.778v-.384A46.069,46.069,0,0,0,15.1,12.6c.368.7.7,1.425,1.025,2.145-.16.048-.336.1-.5.144A20.045,20.045,0,0,0,5.379,23.2,12.579,12.579,0,0,1,2.145,14.778Zm12.616,12.6A12.521,12.521,0,0,1,7.029,24.72c.224-.464,2.786-5.4,9.894-7.877.032-.016.048-.016.08-.032a52.121,52.121,0,0,1,2.69,9.558A12.4,12.4,0,0,1,14.762,27.378Zm7.029-2.161a54.247,54.247,0,0,0-2.45-8.982,18.413,18.413,0,0,1,7.845.544A12.5,12.5,0,0,1,21.79,25.216Z" fill="#bfbfbf" fill-rule="evenodd"/>
</svg>
