<svg id="Group_5" data-name="Group 5" xmlns="http://www.w3.org/2000/svg" width="29.523" height="29.523" viewBox="0 0 29.523 29.523">
  <g id="Rectangle_2" data-name="Rectangle 2" transform="translate(0)">
    <path id="Path_1" data-name="Path 1" d="M-114.855,517.523h-12.767A8.387,8.387,0,0,1-136,509.145V496.378A8.387,8.387,0,0,1-127.622,488h12.767a8.387,8.387,0,0,1,8.378,8.378v12.767A8.387,8.387,0,0,1-114.855,517.523Zm-12.767-27.129a5.991,5.991,0,0,0-5.984,5.984v12.767a5.991,5.991,0,0,0,5.984,5.984h12.767a5.991,5.991,0,0,0,5.984-5.984V496.378a5.991,5.991,0,0,0-5.984-5.984Z" transform="translate(136 -488)" fill="#bfbfbf"/>
  </g>
  <g id="Ellipse_1" data-name="Ellipse 1" transform="translate(7.538 7.538)">
    <path id="Path_2" data-name="Path 2" d="M-118.777,512.447A7.231,7.231,0,0,1-126,505.223,7.231,7.231,0,0,1-118.777,498a7.231,7.231,0,0,1,7.223,7.223A7.231,7.231,0,0,1-118.777,512.447Zm0-11.9a4.679,4.679,0,0,0-4.674,4.674,4.679,4.679,0,0,0,4.674,4.674,4.679,4.679,0,0,0,4.674-4.674A4.679,4.679,0,0,0-118.777,500.549Z" transform="translate(126 -498)" fill="#bfbfbf"/>
  </g>
  <circle id="Ellipse_2" data-name="Ellipse 2" cx="2.124" cy="2.124" r="2.124" transform="translate(20.14 5.134)" fill="#bfbfbf"/>
</svg>
