<svg id="Group_8" data-name="Group 8" xmlns="http://www.w3.org/2000/svg" width="47.235" height="29.433" viewBox="0 0 47.235 29.433">
  <g id="Group_3" data-name="Group 3" transform="translate(0 0.258)">
    <g id="Group_2" data-name="Group 2">
      <path id="Path_3" data-name="Path 3" d="M178.3,497.081V497a6.606,6.606,0,0,0,4.26-6.418,6.778,6.778,0,0,0-3.391-6c-1.71-1.037-5.045-1.037-7.595-1.037h-10.4v28.7H175.05c5.717,0,8.716-4.036,8.716-8.24A6.578,6.578,0,0,0,178.3,497.081ZM164.988,486.74h7.651c3.279,0,6.11.589,6.11,4.568,0,3-1.766,4.568-6.11,4.568h-7.651Zm9.585,22.281h-9.585V499.1h8.744c3.195,0,6.222,1.037,6.222,4.764C179.954,507,177.852,509.02,174.573,509.02Z" transform="translate(-161.177 -483.545)" fill="#fff"/>
      <path id="Path_4" data-name="Path 4" d="M180.94,486.195c-5.661,0-9.753,4.568-9.753,10.818.2,6.334,3.335,10.93,9.977,10.93,4.652,0,7.959-2.494,8.884-7.09h-3.391c-.589,2.719-2.578,4.064-5.381,4.064-4.54,0-6.586-3.2-6.474-6.81h15.554C190.553,493.061,188.311,486.195,180.94,486.195Zm-6.138,8.884c.252-3.167,2.382-5.857,5.941-5.857a5.976,5.976,0,0,1,6,5.857Z" transform="translate(-143.133 -478.768)" fill="#fff"/>
    </g>
  </g>
  <rect id="Rectangle_2" data-name="Rectangle 2" width="9.073" height="3.087" transform="translate(33.618 0)" fill="#fff"/>
</svg>
